<mxfile host="app.diagrams.net" modified="2024-02-26T12:46:13.426Z" agent="Mozilla/5.0 (Macintosh; Intel Mac OS X 10_15_7) AppleWebKit/537.36 (KHTML, like Gecko) Chrome/122.0.0.0 Safari/537.36" etag="K36Sbl-_Lf-Ona6zAyop" version="23.1.6" type="github">
  <diagram name="第 1 页" id="vCmJwNdbnuavgGpq8-RB">
    <mxGraphModel dx="512" dy="281" grid="1" gridSize="10" guides="1" tooltips="1" connect="1" arrows="1" fold="1" page="1" pageScale="1" pageWidth="827" pageHeight="1169" math="0" shadow="0">
      <root>
        <mxCell id="0" />
        <mxCell id="1" parent="0" />
        <mxCell id="i8kCkxsf--kynQsMsiT5-4" style="edgeStyle=orthogonalEdgeStyle;rounded=0;orthogonalLoop=1;jettySize=auto;html=1;exitX=0.5;exitY=0;exitDx=0;exitDy=0;entryX=0.5;entryY=1;entryDx=0;entryDy=0;" edge="1" parent="1" source="i8kCkxsf--kynQsMsiT5-1" target="i8kCkxsf--kynQsMsiT5-2">
          <mxGeometry relative="1" as="geometry" />
        </mxCell>
        <mxCell id="i8kCkxsf--kynQsMsiT5-5" style="edgeStyle=orthogonalEdgeStyle;rounded=0;orthogonalLoop=1;jettySize=auto;html=1;exitX=0.5;exitY=0;exitDx=0;exitDy=0;entryX=0.5;entryY=1;entryDx=0;entryDy=0;" edge="1" parent="1" source="i8kCkxsf--kynQsMsiT5-1" target="i8kCkxsf--kynQsMsiT5-3">
          <mxGeometry relative="1" as="geometry" />
        </mxCell>
        <mxCell id="i8kCkxsf--kynQsMsiT5-1" value="Input" style="rounded=1;whiteSpace=wrap;html=1;fillColor=#f5f5f5;fontColor=#333333;strokeColor=#666666;" vertex="1" parent="1">
          <mxGeometry x="294" y="410" width="80" height="30" as="geometry" />
        </mxCell>
        <mxCell id="i8kCkxsf--kynQsMsiT5-2" value="Token embedding" style="rounded=1;whiteSpace=wrap;html=1;fillColor=#f8cecc;strokeColor=#b85450;" vertex="1" parent="1">
          <mxGeometry x="190" y="340" width="120" height="30" as="geometry" />
        </mxCell>
        <mxCell id="i8kCkxsf--kynQsMsiT5-3" value="Pos embedding" style="rounded=1;whiteSpace=wrap;html=1;fillColor=#f8cecc;strokeColor=#b85450;" vertex="1" parent="1">
          <mxGeometry x="360" y="340" width="120" height="30" as="geometry" />
        </mxCell>
        <mxCell id="i8kCkxsf--kynQsMsiT5-6" value="" style="ellipse;whiteSpace=wrap;html=1;aspect=fixed;" vertex="1" parent="1">
          <mxGeometry x="324" y="290" width="20" height="20" as="geometry" />
        </mxCell>
        <mxCell id="i8kCkxsf--kynQsMsiT5-10" value="" style="group" vertex="1" connectable="0" parent="1">
          <mxGeometry x="324" y="290" width="20" height="20" as="geometry" />
        </mxCell>
        <mxCell id="i8kCkxsf--kynQsMsiT5-7" value="" style="endArrow=none;html=1;rounded=0;" edge="1" parent="i8kCkxsf--kynQsMsiT5-10">
          <mxGeometry width="50" height="50" relative="1" as="geometry">
            <mxPoint y="10" as="sourcePoint" />
            <mxPoint x="20" y="10" as="targetPoint" />
          </mxGeometry>
        </mxCell>
        <mxCell id="i8kCkxsf--kynQsMsiT5-8" value="" style="endArrow=none;html=1;rounded=0;" edge="1" parent="i8kCkxsf--kynQsMsiT5-10">
          <mxGeometry width="50" height="50" relative="1" as="geometry">
            <mxPoint x="9.5" as="sourcePoint" />
            <mxPoint x="9.5" y="20" as="targetPoint" />
          </mxGeometry>
        </mxCell>
        <mxCell id="i8kCkxsf--kynQsMsiT5-13" value="" style="endArrow=classic;html=1;rounded=0;exitX=0.5;exitY=0;exitDx=0;exitDy=0;edgeStyle=orthogonalEdgeStyle;" edge="1" parent="1">
          <mxGeometry width="50" height="50" relative="1" as="geometry">
            <mxPoint x="254" y="340" as="sourcePoint" />
            <mxPoint x="324" y="300" as="targetPoint" />
            <Array as="points">
              <mxPoint x="250" y="340" />
              <mxPoint x="250" y="300" />
            </Array>
          </mxGeometry>
        </mxCell>
        <mxCell id="i8kCkxsf--kynQsMsiT5-14" value="" style="endArrow=classic;html=1;rounded=0;exitX=0.5;exitY=0;exitDx=0;exitDy=0;edgeStyle=orthogonalEdgeStyle;" edge="1" parent="1">
          <mxGeometry width="50" height="50" relative="1" as="geometry">
            <mxPoint x="428" y="339.96000000000004" as="sourcePoint" />
            <mxPoint x="344" y="299.98" as="targetPoint" />
            <Array as="points">
              <mxPoint x="420" y="340" />
              <mxPoint x="420" y="300" />
            </Array>
          </mxGeometry>
        </mxCell>
        <mxCell id="i8kCkxsf--kynQsMsiT5-15" value="" style="endArrow=classic;html=1;rounded=0;" edge="1" parent="1">
          <mxGeometry width="50" height="50" relative="1" as="geometry">
            <mxPoint x="333.84" y="290" as="sourcePoint" />
            <mxPoint x="333.84" y="260" as="targetPoint" />
          </mxGeometry>
        </mxCell>
        <mxCell id="i8kCkxsf--kynQsMsiT5-16" value="Embedding" style="rounded=1;whiteSpace=wrap;html=1;fillColor=#ffe6cc;strokeColor=#d79b00;" vertex="1" parent="1">
          <mxGeometry x="274" y="230" width="120" height="30" as="geometry" />
        </mxCell>
      </root>
    </mxGraphModel>
  </diagram>
</mxfile>
